PathFileType	4	(X/Y/Z)	C:/Users/opensim2020/Desktop/walking_exp_matlab/subject01_walking07_straight_04.trc																																																																																																																															
DataRate	CameraRate	NumFrames	NumMarkers	Units	OrigDataRate	OrigDataStartFrame	OrigNumFrames																																																																																																																											
100	100	4	43	mm	100	2900	176																																																																																																																											
Frame#	Time	LFHD			RFHD			LBHD			RBHD			C7			T10			CLAV			STRN			RBAK			LSHO			LUPA			LELB			LFRM			LWRA			LWRB			LFIN			RSHO			RUPA			RELB			RFRM			RWRA			RWRB			RFIN			LASI			RASI			LPSI			RPSI			LTHI			LKNE			LTIB			LANK			LHEE			LTOE			RTHI			RKNE			RTIB			RANK			RHEE			RTOE			*39			*40			*41			*42		
		X1	Y1	Z1	X2	Y2	Z2	X3	Y3	Z3	X4	Y4	Z4	X5	Y5	Z5	X6	Y6	Z6	X7	Y7	Z7	X8	Y8	Z8	X9	Y9	Z9	X10	Y10	Z10	X11	Y11	Z11	X12	Y12	Z12	X13	Y13	Z13	X14	Y14	Z14	X15	Y15	Z15	X16	Y16	Z16	X17	Y17	Z17	X18	Y18	Z18	X19	Y19	Z19	X20	Y20	Z20	X21	Y21	Z21	X22	Y22	Z22	X23	Y23	Z23	X24	Y24	Z24	X25	Y25	Z25	X26	Y26	Z26	X27	Y27	Z27	X28	Y28	Z28	X29	Y29	Z29	X30	Y30	Z30	X31	Y31	Z31	X32	Y32	Z32	X33	Y33	Z33	X34	Y34	Z34	X35	Y35	Z35	X36	Y36	Z36	X37	Y37	Z37	X38	Y38	Z38	X39	Y39	Z39	X40	Y40	Z40	X41	Y41	Z41	X42	Y42	Z42	X43	Y43	Z43
																																																																																																																																		
133	1.32	415.88922	1654.17041	973.63599	463.30338	1657.79114	1078.96265	302.52133	1621.33813	1019.63287	349.89346	1625.81812	1130.64929	260.93991	1423.4436	1046.74377	218.75601	1131.12476	1054.81067	403.14536	1352.19922	1048.65259	442.67398	1197.15613	1043.06458	201.17525	1230.02905	1120.14453	349.04471	1385.31592	887.53711	357.64984	1205.69849	793.46527	387.32462	1055.75684	781.52081	477.05728	982.76556	757.34094	604.56555	930.23718	775.86206	562.48462	895.12195	752.35101	640.80157	866.95288	740.11169	339.3432	1383.00244	1200.27588	249.93625	1189.34204	1289.5835	233.76373	1067.17737	1288.27661	231.57803	948.47687	1320.67639	285.63025	815.47015	1311.19897	238.74965	827.94354	1344.7959	254.04504	741.14752	1342.29443	382.91956	922.41492	942.12952	394.99442	927.65735	1159.66003	200.60104	935.92114	1009.68805	210.66719	934.57336	1154.26135	298.88263	594.01642	898.03613	260.96469	461.77762	915.42603	176.28831	291.34198	911.37158	110.86585	82.35509	970.02979	62.41248	60.02237	1023.07178	252.3692	32.52367	962.2796	427.61862	604.42834	1237.57397	500.68671	464.93927	1210.93384	500.04483	292.59268	1231.85449	540.91199	85.41595	1198.80261	505.48697	32.48331	1150.44775	684.56561	81.24298	1197.78455	448.29962	1692.41443	1059.11499	-1973.13855	1023.35718	3101.9314	-2012.59656	1022.1192	3140.7793	NaN	NaN	NaN
134	1.33	425.3783	1653.22131	974.93561	472.98584	1656.7334	1080.20422	312.0563	1620.3512	1021.10834	359.64658	1624.68665	1131.9873	270.53873	1422.38916	1047.82141	228.58455	1129.95581	1055.91138	412.74677	1351.20227	1049.71472	452.35626	1196.23401	1043.8291	210.84657	1228.76721	1121.1239	358.46317	1384.49377	888.62317	367.4617	1205.01953	794.39923	397.50827	1055.05676	782.19476	488.15689	983.07294	758.05176	616.16095	931.86938	776.2804	574.38861	896.22339	752.92517	653.12097	868.88916	740.4411	348.83722	1381.80615	1201.47058	258.60742	1188.302	1290.09973	241.93082	1066.22754	1288.58972	239.18393	947.51575	1320.78125	292.84601	814.35687	1311.32947	245.7804	827.0072	1344.77734	260.85397	739.93036	1341.97327	392.57071	921.53552	942.40186	405.48215	926.37311	1159.85767	210.38034	935.01953	1011.06317	221.34367	933.45642	1155.38208	304.98685	593.86945	898.02063	265.94632	461.81946	915.46503	179.31293	292.30029	911.42975	111.51846	84.13038	969.84033	62.93331	62.14386	1022.89844	252.43622	32.50436	962.20966	434.80832	602.49396	1239.37781	509.99246	464.44568	1210.83276	515.40375	292.41562	1232.36328	562.1261	86.13973	1199.08276	527.65326	32.15948	1151.13647	706.23065	85.86776	1195.45959	457.93634	1691.33838	1060.43982	-1973.06995	1023.89197	3101.96802	-2012.58496	1022.05817	3140.78931	NaN	NaN	NaN
135	1.34	434.84189	1652.38464	976.22656	482.68515	1655.6991	1081.41235	321.673	1619.40039	1022.64008	369.46136	1623.60339	1133.48206	279.89175	1421.39197	1049.58679	238.48726	1128.77368	1057.08691	422.3551	1350.22729	1050.85791	462.11359	1195.29858	1044.69629	220.62964	1227.46912	1122.18738	368.16721	1383.62256	889.78516	377.18115	1204.28564	795.50507	407.82281	1054.44519	783.1543	498.82852	983.18176	758.82874	627.29547	933.10846	776.77289	585.74982	897.04584	753.62244	664.69843	870.49384	740.96674	358.42422	1380.6106	1202.70642	267.46783	1187.25525	1290.77344	250.34164	1065.29773	1289.13245	247.151	946.44708	1321.06592	299.9458	812.98236	1311.18835	253.04602	825.71307	1344.45056	268.02667	739.03491	1342.12964	402.15866	920.45013	942.61743	416.12601	925.0473	1160.12451	220.26974	934.11273	1012.33331	231.80836	932.48792	1156.80652	311.52716	593.75793	898.1214	271.32437	461.93274	915.5437	182.89987	293.38159	911.59656	112.4906	85.87589	969.66583	63.55227	64.59755	1022.75525	252.53682	32.48235	962.12616	443.22308	601.03925	1240.4884	519.21387	463.85074	1210.97156	529.31445	292.06119	1232.45581	581.18732	86.79864	1199.02454	547.46338	31.86046	1151.67773	725.54688	89.70865	1193.09131	467.66275	1690.42664	1061.78101	-1973.20789	1023.44244	3101.83057	-2012.52551	1021.99908	3140.80322	NaN	NaN	NaN
136	1.35	444.19281	1651.1842	978.06085	492.3959	1654.69971	1082.69299	331.27063	1618.50793	1024.40051	379.34186	1622.52283	1135.02051	289.45822	1420.38074	1050.92529	248.43806	1127.62354	1058.38916	432.07721	1349.28357	1052.09839	471.93118	1194.43933	1045.70764	230.4431	1226.15771	1123.27917	377.61566	1382.90417	891.0683	386.69354	1203.55054	796.77783	417.76715	1053.73071	784.63287	509.50677	983.0191	759.89648	638.0943	934.02917	777.29388	596.80212	897.63062	754.32483	675.92584	871.65295	741.46863	367.99445	1379.46985	1203.98486	276.30545	1186.13062	1291.6947	259.06027	1064.25964	1289.7666	255.39569	945.33783	1321.45605	307.67145	811.60132	1311.36328	260.81671	824.70697	1344.91724	275.41544	737.61627	1342.02209	412.21884	919.58929	943.1712	426.82788	923.80664	1160.49548	230.25565	933.21832	1013.6897	242.3391	931.47772	1158.16626	318.44418	593.65955	898.34796	277.26846	462.1124	915.7243	186.74245	294.52933	911.69006	113.42824	87.70631	969.26855	64.27379	67.23626	1022.45026	252.42494	32.68354	962.10706	453.32666	600.14496	1241.5387	528.64313	462.99069	1211.00464	541.85895	291.37903	1232.26257	597.8775	86.99145	1198.64136	564.78766	31.48084	1151.65857	742.64453	92.27235	1190.62488	477.31827	1689.33618	1063.13354	-1973.11218	1023.35376	3101.99243	-2012.52661	1022.0531	3140.69678	NaN	NaN	NaN
